<?xml version="1.0" encoding="UTF-8" standalone="no"?>
<svg
   xmlns:dc="http://purl.org/dc/elements/1.1/"
   xmlns:cc="http://creativecommons.org/ns#"
   xmlns:rdf="http://www.w3.org/1999/02/22-rdf-syntax-ns#"
   xmlns:svg="http://www.w3.org/2000/svg"
   xmlns="http://www.w3.org/2000/svg"
   xmlns:sodipodi="http://sodipodi.sourceforge.net/DTD/sodipodi-0.dtd"
   xmlns:inkscape="http://www.inkscape.org/namespaces/inkscape"
   id="svg8"
   version="1.1"
   viewBox="0 0 446.76172 243.93077"
   height="243.93077mm"
   width="446.76175mm"
   sodipodi:docname="fmu_logo_with_text_plain.svg"
   inkscape:version="0.92.2 (5c3e80d, 2017-08-06)">
  <sodipodi:namedview
     pagecolor="#ffffff"
     bordercolor="#666666"
     borderopacity="1"
     objecttolerance="10"
     gridtolerance="10"
     guidetolerance="10"
     inkscape:pageopacity="0"
     inkscape:pageshadow="2"
     inkscape:window-width="2347"
     inkscape:window-height="1197"
     id="namedview33"
     showgrid="false"
     inkscape:zoom="0.33032112"
     inkscape:cx="-412.18732"
     inkscape:cy="743.80677"
     inkscape:window-x="0"
     inkscape:window-y="0"
     inkscape:window-maximized="0"
     inkscape:current-layer="svg8"
     fit-margin-top="0.8"
     fit-margin-left="0.8"
     fit-margin-right="0.8"
     fit-margin-bottom="0.8" />
  <defs
     id="defs2" />
  <metadata
     id="metadata5">
    <rdf:RDF>
      <cc:Work
         rdf:about="">
        <dc:format>image/svg+xml</dc:format>
        <dc:type
           rdf:resource="http://purl.org/dc/dcmitype/StillImage" />
        <dc:title></dc:title>
      </cc:Work>
    </rdf:RDF>
  </metadata>
  <g
     transform="translate(-59.277662,-109.96963)"
     id="layer1">
    <path
       style="fill:#ff1243;fill-opacity:1;stroke:none;stroke-width:0.26458332px;stroke-linecap:butt;stroke-linejoin:miter;stroke-opacity:1"
       d="m 169.82504,342.30651 v -84.36027 c 0,0 98.78636,56.48317 99.31324,57.26339 5.90894,8.75007 -51.68824,-7.74851 -51.68824,-7.74851 l 9.34311,14.77003 c 3.59883,5.68921 -14.16184,12.70313 -20.52421,8.8931 -0.61535,-0.3685 -9.8883,-15.5825 -9.8883,-15.5825 0,0 -23.34837,36.05747 -26.5556,26.76476 z"
       id="path4925"
       inkscape:connector-curvature="0" />
    <circle
       r="20.513554"
       cy="231.57703"
       cx="179.15971"
       id="path5033"
       style="opacity:1;vector-effect:none;fill:#333333;fill-opacity:1;stroke:none;stroke-width:0.26591641px;stroke-linecap:butt;stroke-linejoin:miter;stroke-miterlimit:4;stroke-dasharray:none;stroke-dashoffset:0;stroke-opacity:1" />
    <path
       id="path4610"
       d="m 269.98887,295.04168 -73.13759,-42.04219 c 0,0 98.20071,-57.49532 99.13972,-57.56328 10.53083,-0.76213 -32.47731,40.95043 -32.47731,40.95043 l 17.46141,-0.7393 c 6.72589,-0.28477 3.95543,18.60865 -2.51852,22.22582 -0.62614,0.34985 -18.43749,0.80707 -18.43749,0.80707 0,0 19.62463,38.21205 9.96978,36.36145 z"
       style="fill:#007079;fill-opacity:1;stroke:none;stroke-width:0.26458332px;stroke-linecap:butt;stroke-linejoin:miter;stroke-opacity:1"
       inkscape:connector-curvature="0" />
    <path
       style="fill:#65737d;fill-opacity:1;stroke:none;stroke-width:0.26458332px;stroke-linecap:butt;stroke-linejoin:miter;stroke-opacity:1"
       d="m 279.04161,184.60687 -73.25145,41.84351 c 0,0 0.0463,-113.79405 0.46243,-114.63857 4.66693,-9.47091 18.9097,48.72512 18.9097,48.72512 l 8.1908,-15.43885 c 3.15498,-5.94683 18.05475,5.99609 17.90223,13.41045 -0.0152,0.7171 -8.62584,16.31524 -8.62584,16.31524 0,0 42.89032,2.38893 36.41213,9.7831 z"
       id="path4612"
       inkscape:connector-curvature="0" />
    <path
       id="path4614"
       d="m 187.4098,121.01477 -0.0342,84.36026 c 0,0 -98.763425,-56.52322 -99.289999,-57.30366 -5.905388,-8.75247 51.685089,7.76948 51.685089,7.76948 l -9.33711,-14.77382 c -3.59653,-5.69067 14.16699,-12.69739 20.52781,-8.88477 0.61521,0.36871 9.88197,15.58649 9.88197,15.58649 0,0 23.363,-36.04799 26.56645,-26.75398 z"
       style="fill:#ff1243;fill-opacity:1;stroke:none;stroke-width:0.26458332px;stroke-linecap:butt;stroke-linejoin:miter;stroke-opacity:1"
       inkscape:connector-curvature="0" />
    <path
       style="fill:#007079;fill-opacity:1;stroke:none;stroke-width:0.26458332px;stroke-linecap:butt;stroke-linejoin:miter;stroke-opacity:1"
       d="m 87.849585,169.19858 73.090805,42.12352 c 0,0 -98.264601,57.38605 -99.20369,57.45297 -10.531677,0.75041 32.522846,-40.91429 32.522846,-40.91429 l -17.462222,0.71988 c -6.726207,0.27729 -3.934739,-18.61304 2.54324,-22.223 0.626505,-0.34917 18.438366,-0.78656 18.438366,-0.78656 0,0 -19.582117,-38.23387 -9.92934,-36.37252 z"
       id="path4616"
       inkscape:connector-curvature="0" />
    <path
       id="path4618"
       d="m 79.114292,279.47665 73.126518,-42.06148 c 0,0 0.29257,113.7937 -0.12105,114.63944 -4.63873,9.4848 -19.05473,-48.6686 -19.05473,-48.6686 l -8.14478,15.46319 c -3.13725,5.9562 -18.07253,-5.9423 -17.94208,-13.35709 0.0126,-0.71712 8.57723,-16.34085 8.57723,-16.34085 0,0 -42.897268,-2.2612 -36.441105,-9.67462 z"
       style="fill:#65737d;fill-opacity:1;stroke:none;stroke-width:0.26458332px;stroke-linecap:butt;stroke-linejoin:miter;stroke-opacity:1"
       inkscape:connector-curvature="0" />
    <g
       id="flowRoot4611"
       style="font-style:normal;font-variant:normal;font-weight:800;font-stretch:normal;font-size:96px;line-height:1.25;font-family:Dosis;-inkscape-font-specification:'Dosis, Ultra-Bold';font-variant-ligatures:normal;font-variant-caps:normal;font-variant-numeric:normal;font-feature-settings:normal;text-align:start;letter-spacing:0px;word-spacing:0px;writing-mode:lr-tb;text-anchor:start;fill:#333333;fill-opacity:1;stroke:none;image-rendering:auto"
       transform="matrix(1.0659236,0,0,1.0659236,-698.50943,-150.16495)"
       aria-label="FMU">
      <path
         id="path4556"
         style="font-style:normal;font-variant:normal;font-weight:800;font-stretch:normal;font-size:96px;font-family:Dosis;-inkscape-font-specification:'Dosis, Ultra-Bold';font-variant-ligatures:normal;font-variant-caps:normal;font-variant-numeric:normal;font-feature-settings:normal;text-align:start;writing-mode:lr-tb;text-anchor:start;fill:#333333;fill-opacity:1"
         d="m 948.04142,328.98278 q 0,-2.304 2.016,-3.456 2.016,-1.152 4.512,-1.152 h 33.312 q 2.4,0 3.456,2.112 1.056,2.016 1.056,4.32 0,2.688 -1.152,4.704 -1.152,1.92 -3.36,1.92 h -24.864 v 16.224 h 14.496 q 2.208,0 3.36,1.824 1.152,1.728 1.152,4.032 0,1.92 -1.056,3.84 -1.056,1.824 -3.456,1.824 h -14.496 v 24.768 q 0,2.304 -2.4,3.456 -2.304,1.152 -5.088,1.152 -2.784,0 -5.184,-1.152 -2.304,-1.152 -2.304,-3.456 z"
         inkscape:connector-curvature="0" />
      <path
         id="path4558"
         style="font-style:normal;font-variant:normal;font-weight:800;font-stretch:normal;font-size:96px;font-family:Dosis;-inkscape-font-specification:'Dosis, Ultra-Bold';font-variant-ligatures:normal;font-variant-caps:normal;font-variant-numeric:normal;font-feature-settings:normal;text-align:start;writing-mode:lr-tb;text-anchor:start;fill:#333333;fill-opacity:1"
         d="m 1031.3334,369.68678 q -0.96,1.632 -2.304,2.208 -1.344,0.576 -2.688,0.576 -1.344,0 -2.592,-0.576 -1.248,-0.576 -2.112,-2.208 l -9.12,-16.704 v 36.96 q 0,2.304 -2.4,3.456 -2.304,1.152 -5.088,1.152 -2.784,0 -5.18398,-1.152 -2.304,-1.152 -2.304,-3.456 v -58.08 q 0,-2.016 0.576,-3.456 0.672,-1.44 1.728,-2.304 1.05598,-0.96 2.39998,-1.344 1.344,-0.384 2.784,-0.384 2.016,0 3.552,0.192 1.536,0.192 2.784,0.96 1.344,0.768 2.592,2.304 1.248,1.44 2.688,4.032 l 9.888,17.28 9.888,-17.28 q 1.44,-2.592 2.688,-4.032 1.248,-1.536 2.496,-2.304 1.344,-0.768 2.88,-0.96 1.536,-0.192 3.552,-0.192 2.88,0 5.184,1.728 2.304,1.632 2.304,5.76 v 58.08 q 0,2.304 -2.4,3.456 -2.304,1.152 -5.088,1.152 -2.784,0 -5.184,-1.152 -2.304,-1.152 -2.304,-3.456 v -36 z"
         inkscape:connector-curvature="0" />
      <path
         id="path4560"
         style="font-style:normal;font-variant:normal;font-weight:800;font-stretch:normal;font-size:96px;font-family:Dosis;-inkscape-font-specification:'Dosis, Ultra-Bold';font-variant-ligatures:normal;font-variant-caps:normal;font-variant-numeric:normal;font-feature-settings:normal;text-align:start;writing-mode:lr-tb;text-anchor:start;fill:#333333;fill-opacity:1"
         d="m 1099.0989,328.88678 q 0,-2.4 2.304,-3.456 2.304,-1.056 5.184,-1.056 1.344,0 2.688,0.288 1.344,0.192 2.4,0.768 1.056,0.576 1.728,1.44 0.672,0.864 0.672,2.016 v 43.584 q 0,6.24 -1.92,10.56 -1.824,4.224 -5.088,7.008 -3.264,2.688 -7.68,3.936 -4.416,1.152 -9.504,1.152 -5.088,0 -9.504,-1.152 -4.416,-1.248 -7.68,-3.936 -3.264,-2.784 -5.184,-7.008 -1.824,-4.32 -1.824,-10.56 v -43.584 q 0,-2.4 2.304,-3.456 2.304,-1.056 5.184,-1.056 1.344,0 2.688,0.288 1.344,0.192 2.4,0.768 1.056,0.576 1.728,1.44 0.672,0.864 0.672,2.016 v 43.584 q 0,4.896 2.4,7.296 2.496,2.304 6.816,2.304 4.32,0 6.72,-2.304 2.496,-2.4 2.496,-7.296 z"
         inkscape:connector-curvature="0" />
    </g>
    <g
       id="text845"
       style="font-style:normal;font-variant:normal;font-weight:bold;font-stretch:normal;font-size:23.87820816px;line-height:1.25;font-family:Dosis;-inkscape-font-specification:'Dosis, Bold';font-variant-ligatures:normal;font-variant-caps:normal;font-variant-numeric:normal;font-feature-settings:normal;text-align:start;letter-spacing:0px;word-spacing:0px;writing-mode:lr-tb;text-anchor:start;fill:#333333;fill-opacity:1;stroke:none;stroke-width:0.59695637"
       aria-label="Fast Model Update">
      <path
         id="path4563"
         style="font-style:normal;font-variant:normal;font-weight:bold;font-stretch:normal;font-size:23.87820816px;font-family:Dosis;-inkscape-font-specification:'Dosis, Bold';font-variant-ligatures:normal;font-variant-caps:normal;font-variant-numeric:normal;font-feature-settings:normal;text-align:start;writing-mode:lr-tb;text-anchor:start;fill:#333333;fill-opacity:1;stroke-width:0.59695637"
         d="m 313.22224,278.17586 q 0,-0.47756 0.40593,-0.71634 0.42981,-0.26267 0.95513,-0.26267 h 8.3335 q 0.50144,0 0.71634,0.42981 0.23878,0.42981 0.23878,0.90737 0,0.5492 -0.23878,0.97901 -0.23878,0.40593 -0.71634,0.40593 h -6.59039 v 4.77564 h 3.65337 q 0.47756,0 0.71634,0.38205 0.23878,0.38205 0.23878,0.85962 0,0.40593 -0.23878,0.81186 -0.2149,0.38205 -0.71634,0.38205 h -3.65337 v 6.54263 q 0,0.47756 -0.50144,0.74022 -0.47757,0.23878 -1.05064,0.23878 -0.59696,0 -1.07452,-0.23878 -0.47757,-0.26266 -0.47757,-0.74022 z"
         inkscape:connector-curvature="0" />
      <path
         id="path4565"
         style="font-style:normal;font-variant:normal;font-weight:bold;font-stretch:normal;font-size:23.87820816px;font-family:Dosis;-inkscape-font-specification:'Dosis, Bold';font-variant-ligatures:normal;font-variant-caps:normal;font-variant-numeric:normal;font-feature-settings:normal;text-align:start;writing-mode:lr-tb;text-anchor:start;fill:#333333;fill-opacity:1;stroke-width:0.59695637"
         d="m 326.69105,283.16641 q 1.38493,0 2.36394,0.40593 0.979,0.38205 1.59984,1.02676 0.62083,0.64471 0.88349,1.48045 0.28654,0.83574 0.28654,1.74311 v 5.85016 q 0,0.40593 -0.42981,0.69247 -0.42981,0.28653 -1.07452,0.28653 -0.59695,0 -1.00288,-0.28653 -0.38205,-0.28654 -0.38205,-0.69247 v -0.69247 q -0.64471,0.74022 -1.52821,1.3133 -0.85961,0.57308 -2.10128,0.57308 -0.64471,0 -1.21779,-0.19103 -0.5492,-0.19102 -0.97901,-0.57307 -0.40593,-0.40593 -0.66859,-1.00289 -0.23878,-0.59695 -0.23878,-1.40881 0,-1.02677 0.40593,-1.69536 0.40593,-0.69246 1.12228,-1.07452 0.74022,-0.40592 1.76698,-0.57307 1.02677,-0.16715 2.26843,-0.16715 h 0.97901 v -0.31042 q 0,-0.38205 -0.11939,-0.7641 -0.0955,-0.40593 -0.35817,-0.71635 -0.23879,-0.31041 -0.64471,-0.50144 -0.38206,-0.2149 -0.97901,-0.2149 -0.69247,0 -1.12228,0.11939 -0.4298,0.11939 -0.71634,0.26266 -0.28654,0.11939 -0.47757,0.23878 -0.19102,0.11939 -0.40593,0.11939 -0.52532,0 -0.78798,-0.50144 -0.26266,-0.50144 -0.26266,-1.02676 0,-0.35818 0.35817,-0.66859 0.35818,-0.3343 0.90738,-0.5492 0.57307,-0.23878 1.24166,-0.35817 0.66859,-0.14327 1.31331,-0.14327 z m 2.05352,6.61426 h -0.35817 q -0.59696,0 -1.17003,0.0478 -0.5492,0.0477 -0.97901,0.2149 -0.42981,0.14327 -0.69247,0.45369 -0.26266,0.28654 -0.26266,0.78798 0,0.66859 0.35817,0.979 0.35818,0.31042 0.90738,0.31042 0.35817,0 0.74022,-0.19102 0.40593,-0.19103 0.71635,-0.50145 0.33429,-0.33429 0.52532,-0.74022 0.2149,-0.42981 0.2149,-0.85962 z"
         inkscape:connector-curvature="0" />
      <path
         id="path4567"
         style="font-style:normal;font-variant:normal;font-weight:bold;font-stretch:normal;font-size:23.87820816px;font-family:Dosis;-inkscape-font-specification:'Dosis, Bold';font-variant-ligatures:normal;font-variant-caps:normal;font-variant-numeric:normal;font-feature-settings:normal;text-align:start;writing-mode:lr-tb;text-anchor:start;fill:#333333;fill-opacity:1;stroke-width:0.59695637"
         d="m 337.71569,292.52666 q 1.05064,0 1.38493,-0.33429 0.35818,-0.3343 0.35818,-0.69247 0,-0.52532 -0.42981,-0.81186 -0.40593,-0.28654 -1.05064,-0.47756 -0.62084,-0.19103 -1.36106,-0.38205 -0.71635,-0.21491 -1.36106,-0.5492 -0.62083,-0.35818 -1.05064,-0.95513 -0.40593,-0.59696 -0.40593,-1.59984 0,-0.64471 0.21491,-1.26555 0.2149,-0.64471 0.71634,-1.14615 0.50144,-0.50144 1.3133,-0.81186 0.83574,-0.33429 2.02965,-0.33429 0.71635,0 1.40882,0.11939 0.69246,0.11939 1.21778,0.33429 0.52532,0.19103 0.83574,0.47757 0.3343,0.28654 0.3343,0.62083 0,0.16715 -0.0716,0.42981 -0.0716,0.23878 -0.2149,0.47756 -0.14327,0.23878 -0.35818,0.40593 -0.2149,0.16715 -0.47756,0.16715 -0.2149,0 -0.47756,-0.0955 -0.23879,-0.11939 -0.57308,-0.23879 -0.31042,-0.14326 -0.69247,-0.23878 -0.38205,-0.11939 -0.88349,-0.11939 -0.90737,0 -1.28943,0.35817 -0.38205,0.35818 -0.38205,0.71635 0,0.42981 0.42981,0.66859 0.42981,0.23878 1.05064,0.42981 0.64471,0.16715 1.38494,0.38205 0.74022,0.19103 1.36106,0.57308 0.64471,0.38205 1.07452,1.05064 0.4298,0.64471 0.4298,1.69535 0,1.59984 -1.14615,2.55497 -1.12228,0.93125 -3.24744,0.93125 -0.90737,0 -1.69535,-0.16715 -0.78798,-0.16715 -1.38494,-0.45368 -0.57307,-0.28654 -0.90737,-0.64472 -0.33429,-0.38205 -0.33429,-0.78798 0,-0.19102 0.0716,-0.4298 0.0716,-0.23879 0.21491,-0.42981 0.14326,-0.21491 0.33429,-0.35818 0.19103,-0.14326 0.40593,-0.14326 0.26266,0 0.50144,0.16714 0.26266,0.16715 0.62084,0.38205 0.35817,0.19103 0.83573,0.35818 0.50145,0.16714 1.26555,0.16714 z"
         inkscape:connector-curvature="0" />
      <path
         id="path4569"
         style="font-style:normal;font-variant:normal;font-weight:bold;font-stretch:normal;font-size:23.87820816px;font-family:Dosis;-inkscape-font-specification:'Dosis, Bold';font-variant-ligatures:normal;font-variant-caps:normal;font-variant-numeric:normal;font-feature-settings:normal;text-align:start;writing-mode:lr-tb;text-anchor:start;fill:#333333;fill-opacity:1;stroke-width:0.59695637"
         d="m 347.05356,290.78356 q 0,0.69246 0.28654,0.979 0.28654,0.28654 1.05064,0.28654 h 0.93125 q 0.66859,0 0.97901,0.40593 0.33429,0.40593 0.33429,0.88349 0,0.50145 -0.33429,0.90738 -0.31042,0.40592 -0.97901,0.40592 h -0.93125 q -2.17292,0 -3.29519,-0.90737 -1.12228,-0.93125 -1.12228,-2.96089 v -11.58094 q 0,-0.4298 0.47756,-0.69246 0.50145,-0.26266 1.05065,-0.26266 0.59695,0 1.07451,0.26266 0.47757,0.26266 0.47757,0.69246 v 4.10706 h 2.81763 q 0.38205,0 0.57307,0.35817 0.21491,0.35817 0.21491,0.7641 0,0.42981 -0.21491,0.78798 -0.19102,0.3343 -0.57307,0.3343 h -2.81763 z"
         inkscape:connector-curvature="0" />
      <path
         id="path4571"
         style="font-style:normal;font-variant:normal;font-weight:bold;font-stretch:normal;font-size:23.87820816px;font-family:Dosis;-inkscape-font-specification:'Dosis, Bold';font-variant-ligatures:normal;font-variant-caps:normal;font-variant-numeric:normal;font-feature-settings:normal;text-align:start;writing-mode:lr-tb;text-anchor:start;fill:#333333;fill-opacity:1;stroke-width:0.59695637"
         d="m 365.22189,288.37186 q -0.19102,0.35817 -0.47756,0.50144 -0.28654,0.11939 -0.57308,0.11939 -0.28654,0 -0.57308,-0.11939 -0.26266,-0.14327 -0.45368,-0.50144 l -2.746,-5.1577 v 10.45866 q 0,0.47756 -0.50144,0.74022 -0.47756,0.23878 -1.05064,0.23878 -0.59696,0 -1.07452,-0.23878 -0.47756,-0.26266 -0.47756,-0.74022 v -14.92388 q 0,-0.85962 0.47756,-1.19391 0.47756,-0.35818 1.07452,-0.35818 0.42981,0 0.74022,0.0716 0.31042,0.0478 0.57308,0.23878 0.28654,0.16715 0.5492,0.50144 0.26266,0.31042 0.5492,0.83574 l 2.93702,5.34872 2.93702,-5.34872 q 0.28654,-0.52532 0.5492,-0.83574 0.26266,-0.33429 0.52532,-0.50144 0.28654,-0.19102 0.59695,-0.23878 0.3343,-0.0716 0.7641,-0.0716 0.59696,0 1.07452,0.35818 0.47757,0.33429 0.47757,1.19391 v 14.92388 q 0,0.47756 -0.50144,0.74022 -0.47757,0.23878 -1.05065,0.23878 -0.59695,0 -1.07451,-0.23878 -0.47757,-0.26266 -0.47757,-0.74022 v -10.26763 z"
         inkscape:connector-curvature="0" />
      <path
         id="path4573"
         style="font-style:normal;font-variant:normal;font-weight:bold;font-stretch:normal;font-size:23.87820816px;font-family:Dosis;-inkscape-font-specification:'Dosis, Bold';font-variant-ligatures:normal;font-variant-caps:normal;font-variant-numeric:normal;font-feature-settings:normal;text-align:start;writing-mode:lr-tb;text-anchor:start;fill:#333333;fill-opacity:1;stroke-width:0.59695637"
         d="m 378.36349,283.16641 q 1.02676,0 1.95801,0.38205 0.95513,0.38205 1.67147,1.05064 0.71635,0.66859 1.12228,1.55208 0.42981,0.85962 0.42981,1.8625 v 1.95802 q 0,0.95512 -0.42981,1.83862 -0.40593,0.88349 -1.12228,1.57596 -0.71634,0.66859 -1.67147,1.07452 -0.93125,0.40593 -1.95801,0.40593 -1.05064,0 -2.00577,-0.40593 -0.93125,-0.40593 -1.6476,-1.07452 -0.69247,-0.66859 -1.12228,-1.55208 -0.40592,-0.8835 -0.40592,-1.8625 v -1.95802 q 0,-0.95513 0.40592,-1.83862 0.40593,-0.88349 1.0984,-1.55208 0.71635,-0.66859 1.6476,-1.05064 0.95513,-0.40593 2.02965,-0.40593 z m 2.10128,4.84727 q 0,-0.40593 -0.16715,-0.78798 -0.16715,-0.38205 -0.45368,-0.69247 -0.28654,-0.31041 -0.66859,-0.47756 -0.38206,-0.19103 -0.81186,-0.19103 -0.42981,0 -0.81186,0.19103 -0.38205,0.16715 -0.66859,0.47756 -0.28654,0.31042 -0.45369,0.69247 -0.16715,0.38205 -0.16715,0.78798 v 1.95802 q 0,0.4298 0.16715,0.83573 0.16715,0.38205 0.45369,0.69247 0.28654,0.28654 0.66859,0.47757 0.38205,0.19102 0.81186,0.19102 0.4298,0 0.81186,-0.19102 0.38205,-0.19103 0.66859,-0.47757 0.28653,-0.31042 0.45368,-0.69247 0.16715,-0.40593 0.16715,-0.83573 z"
         inkscape:connector-curvature="0" />
      <path
         id="path4575"
         style="font-style:normal;font-variant:normal;font-weight:bold;font-stretch:normal;font-size:23.87820816px;font-family:Dosis;-inkscape-font-specification:'Dosis, Bold';font-variant-ligatures:normal;font-variant-caps:normal;font-variant-numeric:normal;font-feature-settings:normal;text-align:start;writing-mode:lr-tb;text-anchor:start;fill:#333333;fill-opacity:1;stroke-width:0.59695637"
         d="m 393.98095,276.69541 q 0.66859,0 1.0984,0.26266 0.42981,0.26266 0.42981,0.69247 v 16.02228 q 0,0.35817 -0.42981,0.66859 -0.42981,0.31041 -1.0984,0.31041 -0.57307,0 -0.979,-0.31041 -0.40593,-0.31042 -0.40593,-0.66859 v -0.69247 q -0.35818,0.74022 -1.26555,1.3133 -0.90737,0.57308 -2.05352,0.57308 -0.83574,0 -1.59984,-0.40593 -0.74023,-0.40593 -1.3133,-1.07452 -0.57308,-0.69247 -0.93125,-1.57596 -0.3343,-0.8835 -0.3343,-1.83862 v -1.95802 q 0,-1.00288 0.3343,-1.8625 0.33429,-0.88349 0.90737,-1.55208 0.57307,-0.66859 1.33718,-1.05064 0.78798,-0.38205 1.67147,-0.38205 1.12228,0 1.88638,0.57307 0.78798,0.5492 1.19391,1.24167 v -7.33061 q 0,-0.42981 0.45369,-0.69247 0.45368,-0.26266 1.09839,-0.26266 z m -5.8024,13.27629 q 0,0.40593 0.16715,0.81186 0.16714,0.38205 0.45368,0.69246 0.28654,0.31042 0.64471,0.50145 0.38206,0.19102 0.81186,0.19102 0.45369,0 0.83574,-0.19102 0.40593,-0.21491 0.69247,-0.50145 0.31042,-0.28654 0.47756,-0.57307 0.16715,-0.31042 0.16715,-0.50145 v -2.38782 q 0,-0.50144 -0.19103,-0.88349 -0.19102,-0.40593 -0.50144,-0.69247 -0.31041,-0.28654 -0.69247,-0.42981 -0.38205,-0.14327 -0.7641,-0.14327 -0.42981,0 -0.81186,0.19103 -0.38205,0.16715 -0.66859,0.47756 -0.28654,0.31042 -0.45368,0.69247 -0.16715,0.38205 -0.16715,0.78798 z"
         inkscape:connector-curvature="0" />
      <path
         id="path4577"
         style="font-style:normal;font-variant:normal;font-weight:bold;font-stretch:normal;font-size:23.87820816px;font-family:Dosis;-inkscape-font-specification:'Dosis, Bold';font-variant-ligatures:normal;font-variant-caps:normal;font-variant-numeric:normal;font-feature-settings:normal;text-align:start;writing-mode:lr-tb;text-anchor:start;fill:#333333;fill-opacity:1;stroke-width:0.59695637"
         d="m 402.70919,283.16641 q 0.97901,0 1.8625,0.33429 0.90737,0.3343 1.57596,0.93125 0.69247,0.57308 1.07452,1.40882 0.40593,0.81186 0.40593,1.81474 0,0.7641 -0.19103,1.19391 -0.19102,0.42981 -0.52532,0.64471 -0.31041,0.19103 -0.71634,0.23878 -0.38205,0.0478 -0.78798,0.0478 h -4.84728 v 0.35817 q 0,1.05064 0.7641,1.67148 0.76411,0.62083 2.02965,0.62083 0.59696,0 1.02676,-0.14327 0.42981,-0.14327 0.76411,-0.31041 0.33429,-0.16715 0.59695,-0.31042 0.28654,-0.14327 0.5492,-0.14327 0.26266,0 0.47756,0.14327 0.21491,0.14327 0.35818,0.35817 0.16715,0.21491 0.23878,0.45369 0.0955,0.23878 0.0955,0.40593 0,0.31041 -0.31041,0.66859 -0.28654,0.33429 -0.83574,0.64471 -0.5492,0.28654 -1.33718,0.47756 -0.7641,0.19103 -1.71923,0.19103 -1.26555,0 -2.34007,-0.3343 -1.05064,-0.35817 -1.81474,-1.00288 -0.7641,-0.64471 -1.19391,-1.55208 -0.42981,-0.90738 -0.42981,-2.00577 v -2.02965 q 0,-0.95513 0.40593,-1.81475 0.40593,-0.88349 1.0984,-1.5282 0.71635,-0.66859 1.67147,-1.05064 0.95513,-0.38205 2.05353,-0.38205 z m 1.33718,4.79952 q 0.38205,0 0.52532,-0.11939 0.16715,-0.1194 0.16715,-0.52532 0,-0.83574 -0.62084,-1.36106 -0.62083,-0.52532 -1.48045,-0.52532 -0.81185,0 -1.45657,0.50144 -0.62083,0.50144 -0.62083,1.36106 v 0.66859 z"
         inkscape:connector-curvature="0" />
      <path
         id="path4579"
         style="font-style:normal;font-variant:normal;font-weight:bold;font-stretch:normal;font-size:23.87820816px;font-family:Dosis;-inkscape-font-specification:'Dosis, Bold';font-variant-ligatures:normal;font-variant-caps:normal;font-variant-numeric:normal;font-feature-settings:normal;text-align:start;writing-mode:lr-tb;text-anchor:start;fill:#333333;fill-opacity:1;stroke-width:0.59695637"
         d="m 411.21878,276.69541 q 0.62083,0 1.07452,0.26266 0.47756,0.26266 0.47756,0.69247 v 16.02228 q 0,0.35817 -0.47756,0.66859 -0.45369,0.31041 -1.07452,0.31041 -0.69247,0 -1.12228,-0.31041 -0.40592,-0.31042 -0.40592,-0.66859 v -16.02228 q 0,-0.42981 0.40592,-0.69247 0.42981,-0.26266 1.12228,-0.26266 z"
         inkscape:connector-curvature="0" />
      <path
         id="path4581"
         style="font-style:normal;font-variant:normal;font-weight:bold;font-stretch:normal;font-size:23.87820816px;font-family:Dosis;-inkscape-font-specification:'Dosis, Bold';font-variant-ligatures:normal;font-variant-caps:normal;font-variant-numeric:normal;font-feature-settings:normal;text-align:start;writing-mode:lr-tb;text-anchor:start;fill:#333333;fill-opacity:1;stroke-width:0.59695637"
         d="m 428.63345,278.15198 q 0,-0.50144 0.47757,-0.71634 0.47756,-0.23879 1.07452,-0.23879 0.57308,0 1.05064,0.23879 0.50144,0.2149 0.50144,0.71634 v 11.175 q 0,1.50433 -0.45368,2.55497 -0.42981,1.02677 -1.21779,1.67148 -0.76411,0.64471 -1.81475,0.95513 -1.05064,0.28653 -2.24455,0.28653 -1.21779,0 -2.26843,-0.28653 -1.02676,-0.31042 -1.81474,-0.95513 -0.7641,-0.64471 -1.21779,-1.67148 -0.42981,-1.05064 -0.42981,-2.55497 v -11.175 q 0,-0.50144 0.47757,-0.71634 0.47756,-0.23879 1.07452,-0.23879 0.57307,0 1.05064,0.23879 0.50144,0.2149 0.50144,0.71634 v 11.175 q 0,1.40882 0.69247,2.07741 0.69246,0.66859 1.93413,0.66859 1.24167,0 1.93414,-0.66859 0.69246,-0.66859 0.69246,-2.07741 z"
         inkscape:connector-curvature="0" />
      <path
         id="path4583"
         style="font-style:normal;font-variant:normal;font-weight:bold;font-stretch:normal;font-size:23.87820816px;font-family:Dosis;-inkscape-font-specification:'Dosis, Bold';font-variant-ligatures:normal;font-variant-caps:normal;font-variant-numeric:normal;font-feature-settings:normal;text-align:start;writing-mode:lr-tb;text-anchor:start;fill:#333333;fill-opacity:1;stroke-width:0.59695637"
         d="m 435.58053,283.30968 q 0.62083,0 1.02676,0.26266 0.40593,0.26266 0.40593,0.69246 v 0.71635 q 0.40593,-0.69247 1.24166,-1.24167 0.83574,-0.57307 1.9819,-0.57307 0.88349,0 1.67147,0.38205 0.78798,0.38205 1.36106,1.05064 0.57308,0.66859 0.90737,1.55208 0.3343,0.85962 0.3343,1.8625 v 1.95802 q 0,0.95512 -0.35818,1.83862 -0.33429,0.88349 -0.90737,1.57596 -0.57308,0.66859 -1.33718,1.07452 -0.74022,0.40593 -1.57596,0.40593 -1.07452,0 -1.93414,-0.57308 -0.85961,-0.57308 -1.19391,-1.3133 v 5.96955 q 0,0.38205 -0.47756,0.66859 -0.45369,0.31042 -1.0984,0.31042 -0.66859,0 -1.0984,-0.31042 -0.40593,-0.28654 -0.40593,-0.66859 v -14.6851 q 0,-0.4298 0.40593,-0.69246 0.42981,-0.26266 1.05065,-0.26266 z m 5.85016,4.704 q 0,-0.40593 -0.16715,-0.78798 -0.16715,-0.38205 -0.47757,-0.69247 -0.28653,-0.31041 -0.69246,-0.47756 -0.38205,-0.19103 -0.83574,-0.19103 -0.38205,0 -0.7641,0.14327 -0.35818,0.14327 -0.64471,0.42981 -0.28654,0.28654 -0.47757,0.69247 -0.16715,0.38205 -0.16715,0.88349 v 2.38782 q 0,0.19103 0.14327,0.50145 0.16715,0.28653 0.45369,0.57307 0.28654,0.28654 0.66859,0.50145 0.38205,0.19102 0.83574,0.19102 0.4298,0 0.81185,-0.19102 0.38206,-0.19103 0.66859,-0.50145 0.28654,-0.31041 0.45369,-0.69246 0.19103,-0.40593 0.19103,-0.81186 z"
         inkscape:connector-curvature="0" />
      <path
         id="path4585"
         style="font-style:normal;font-variant:normal;font-weight:bold;font-stretch:normal;font-size:23.87820816px;font-family:Dosis;-inkscape-font-specification:'Dosis, Bold';font-variant-ligatures:normal;font-variant-caps:normal;font-variant-numeric:normal;font-feature-settings:normal;text-align:start;writing-mode:lr-tb;text-anchor:start;fill:#333333;fill-opacity:1;stroke-width:0.59695637"
         d="m 454.98232,276.69541 q 0.66859,0 1.0984,0.26266 0.42981,0.26266 0.42981,0.69247 v 16.02228 q 0,0.35817 -0.42981,0.66859 -0.42981,0.31041 -1.0984,0.31041 -0.57308,0 -0.97901,-0.31041 -0.40593,-0.31042 -0.40593,-0.66859 v -0.69247 q -0.35817,0.74022 -1.26554,1.3133 -0.90737,0.57308 -2.05353,0.57308 -0.83573,0 -1.59984,-0.40593 -0.74022,-0.40593 -1.3133,-1.07452 -0.57308,-0.69247 -0.93125,-1.57596 -0.33429,-0.8835 -0.33429,-1.83862 v -1.95802 q 0,-1.00288 0.33429,-1.8625 0.3343,-0.88349 0.90737,-1.55208 0.57308,-0.66859 1.33718,-1.05064 0.78798,-0.38205 1.67148,-0.38205 1.12227,0 1.88638,0.57307 0.78798,0.5492 1.19391,1.24167 v -7.33061 q 0,-0.42981 0.45368,-0.69247 0.45369,-0.26266 1.0984,-0.26266 z m -5.8024,13.27629 q 0,0.40593 0.16714,0.81186 0.16715,0.38205 0.45369,0.69246 0.28654,0.31042 0.64471,0.50145 0.38205,0.19102 0.81186,0.19102 0.45369,0 0.83574,-0.19102 0.40593,-0.21491 0.69246,-0.50145 0.31042,-0.28654 0.47757,-0.57307 0.16715,-0.31042 0.16715,-0.50145 v -2.38782 q 0,-0.50144 -0.19103,-0.88349 -0.19103,-0.40593 -0.50144,-0.69247 -0.31042,-0.28654 -0.69247,-0.42981 -0.38205,-0.14327 -0.7641,-0.14327 -0.42981,0 -0.81186,0.19103 -0.38205,0.16715 -0.66859,0.47756 -0.28654,0.31042 -0.45369,0.69247 -0.16714,0.38205 -0.16714,0.78798 z"
         inkscape:connector-curvature="0" />
      <path
         id="path4587"
         style="font-style:normal;font-variant:normal;font-weight:bold;font-stretch:normal;font-size:23.87820816px;font-family:Dosis;-inkscape-font-specification:'Dosis, Bold';font-variant-ligatures:normal;font-variant-caps:normal;font-variant-numeric:normal;font-feature-settings:normal;text-align:start;writing-mode:lr-tb;text-anchor:start;fill:#333333;fill-opacity:1;stroke-width:0.59695637"
         d="m 462.73154,283.16641 q 1.38494,0 2.36394,0.40593 0.97901,0.38205 1.59984,1.02676 0.62084,0.64471 0.8835,1.48045 0.28654,0.83574 0.28654,1.74311 v 5.85016 q 0,0.40593 -0.42981,0.69247 -0.42981,0.28653 -1.07452,0.28653 -0.59696,0 -1.00289,-0.28653 -0.38205,-0.28654 -0.38205,-0.69247 v -0.69247 q -0.64471,0.74022 -1.5282,1.3133 -0.85962,0.57308 -2.10129,0.57308 -0.64471,0 -1.21778,-0.19103 -0.5492,-0.19102 -0.97901,-0.57307 -0.40593,-0.40593 -0.66859,-1.00289 -0.23878,-0.59695 -0.23878,-1.40881 0,-1.02677 0.40593,-1.69536 0.40593,-0.69246 1.12227,-1.07452 0.74023,-0.40592 1.76699,-0.57307 1.02676,-0.16715 2.26843,-0.16715 h 0.97901 v -0.31042 q 0,-0.38205 -0.11939,-0.7641 -0.0955,-0.40593 -0.35818,-0.71635 -0.23878,-0.31041 -0.64471,-0.50144 -0.38205,-0.2149 -0.97901,-0.2149 -0.69246,0 -1.12227,0.11939 -0.42981,0.11939 -0.71635,0.26266 -0.28654,0.11939 -0.47756,0.23878 -0.19103,0.11939 -0.40593,0.11939 -0.52532,0 -0.78798,-0.50144 -0.26266,-0.50144 -0.26266,-1.02676 0,-0.35818 0.35817,-0.66859 0.35817,-0.3343 0.90737,-0.5492 0.57308,-0.23878 1.24167,-0.35817 0.66859,-0.14327 1.3133,-0.14327 z m 2.05353,6.61426 h -0.35818 q -0.59695,0 -1.17003,0.0478 -0.5492,0.0477 -0.979,0.2149 -0.42981,0.14327 -0.69247,0.45369 -0.26266,0.28654 -0.26266,0.78798 0,0.66859 0.35817,0.979 0.35817,0.31042 0.90737,0.31042 0.35817,0 0.74023,-0.19102 0.40593,-0.19103 0.71634,-0.50145 0.3343,-0.33429 0.52532,-0.74022 0.21491,-0.42981 0.21491,-0.85962 z"
         inkscape:connector-curvature="0" />
      <path
         id="path4589"
         style="font-style:normal;font-variant:normal;font-weight:bold;font-stretch:normal;font-size:23.87820816px;font-family:Dosis;-inkscape-font-specification:'Dosis, Bold';font-variant-ligatures:normal;font-variant-caps:normal;font-variant-numeric:normal;font-feature-settings:normal;text-align:start;writing-mode:lr-tb;text-anchor:start;fill:#333333;fill-opacity:1;stroke-width:0.59695637"
         d="m 473.20699,290.78356 q 0,0.69246 0.28653,0.979 0.28654,0.28654 1.05065,0.28654 h 0.93125 q 0.66859,0 0.979,0.40593 0.3343,0.40593 0.3343,0.88349 0,0.50145 -0.3343,0.90738 -0.31041,0.40592 -0.979,0.40592 h -0.93125 q -2.17292,0 -3.2952,-0.90737 -1.12227,-0.93125 -1.12227,-2.96089 v -11.58094 q 0,-0.4298 0.47756,-0.69246 0.50144,-0.26266 1.05064,-0.26266 0.59696,0 1.07452,0.26266 0.47757,0.26266 0.47757,0.69246 v 4.10706 h 2.81762 q 0.38206,0 0.57308,0.35817 0.21491,0.35817 0.21491,0.7641 0,0.42981 -0.21491,0.78798 -0.19102,0.3343 -0.57308,0.3343 h -2.81762 z"
         inkscape:connector-curvature="0" />
      <path
         id="path4591"
         style="font-style:normal;font-variant:normal;font-weight:bold;font-stretch:normal;font-size:23.87820816px;font-family:Dosis;-inkscape-font-specification:'Dosis, Bold';font-variant-ligatures:normal;font-variant-caps:normal;font-variant-numeric:normal;font-feature-settings:normal;text-align:start;writing-mode:lr-tb;text-anchor:start;fill:#333333;fill-opacity:1;stroke-width:0.59695637"
         d="m 483.11159,283.16641 q 0.97901,0 1.8625,0.33429 0.90738,0.3343 1.57597,0.93125 0.69246,0.57308 1.07452,1.40882 0.40593,0.81186 0.40593,1.81474 0,0.7641 -0.19103,1.19391 -0.19103,0.42981 -0.52532,0.64471 -0.31042,0.19103 -0.71635,0.23878 -0.38205,0.0478 -0.78798,0.0478 h -4.84727 v 0.35817 q 0,1.05064 0.7641,1.67148 0.7641,0.62083 2.02965,0.62083 0.59695,0 1.02676,-0.14327 0.42981,-0.14327 0.7641,-0.31041 0.3343,-0.16715 0.59696,-0.31042 0.28654,-0.14327 0.5492,-0.14327 0.26266,0 0.47756,0.14327 0.2149,0.14327 0.35817,0.35817 0.16715,0.21491 0.23878,0.45369 0.0955,0.23878 0.0955,0.40593 0,0.31041 -0.31042,0.66859 -0.28654,0.33429 -0.83574,0.64471 -0.5492,0.28654 -1.33718,0.47756 -0.7641,0.19103 -1.71923,0.19103 -1.26554,0 -2.34006,-0.3343 -1.05064,-0.35817 -1.81475,-1.00288 -0.7641,-0.64471 -1.19391,-1.55208 -0.4298,-0.90738 -0.4298,-2.00577 v -2.02965 q 0,-0.95513 0.40593,-1.81475 0.40593,-0.88349 1.09839,-1.5282 0.71635,-0.66859 1.67148,-1.05064 0.95513,-0.38205 2.05352,-0.38205 z m 1.33718,4.79952 q 0.38206,0 0.52532,-0.11939 0.16715,-0.1194 0.16715,-0.52532 0,-0.83574 -0.62083,-1.36106 -0.62083,-0.52532 -1.48045,-0.52532 -0.81186,0 -1.45657,0.50144 -0.62083,0.50144 -0.62083,1.36106 v 0.66859 z"
         inkscape:connector-curvature="0" />
    </g>
  </g>
  <g
     aria-label="™"
     transform="matrix(0.55531543,0,0,0.55531543,425.1808,-584.05293)"
     style="font-style:normal;font-weight:normal;font-size:40px;line-height:1.25;font-family:sans-serif;letter-spacing:0px;word-spacing:0px;fill:#333333;fill-opacity:1;stroke:none"
     id="flowRoot851">
    <path
       d="m 27.5,1208.2031 3.398437,5 3.203125,-5 h 3.320313 v 11.2891 h -2.207031 v -9.4531 l -3.808594,5.9179 h -1.074219 l -3.964844,-5.9179 v 9.4531 h -2.226562 v -11.2891 z m -5.566406,0 v 1.836 H 17.96875 v 9.4531 h -2.226562 v -9.4531 h -3.925782 v -1.836 z"
       id="path843"
       inkscape:connector-curvature="0" />
  </g>
</svg>
