<?xml version="1.0" encoding="UTF-8" standalone="no"?>
<svg
   xmlns:dc="http://purl.org/dc/elements/1.1/"
   xmlns:cc="http://creativecommons.org/ns#"
   xmlns:rdf="http://www.w3.org/1999/02/22-rdf-syntax-ns#"
   xmlns:svg="http://www.w3.org/2000/svg"
   xmlns="http://www.w3.org/2000/svg"
   id="svg8"
   version="1.1"
   viewBox="0 0 239.57364 244.24259"
   height="244.2426mm"
   width="239.57365mm">
  <defs
     id="defs2" />
  <metadata
     id="metadata5">
    <rdf:RDF>
      <cc:Work
         rdf:about="">
        <dc:format>image/svg+xml</dc:format>
        <dc:type
           rdf:resource="http://purl.org/dc/dcmitype/StillImage" />
        <dc:title></dc:title>
      </cc:Work>
    </rdf:RDF>
  </metadata>
  <g
     transform="translate(-59.077662,-109.76963)"
     id="layer1">
    <path
       style="fill:#ff1243;fill-opacity:1;stroke:none;stroke-width:0.26458332px;stroke-linecap:butt;stroke-linejoin:miter;stroke-opacity:1"
       d="m 169.82504,342.30651 v -84.36027 c 0,0 98.78636,56.48317 99.31324,57.26339 5.90894,8.75007 -51.68824,-7.74851 -51.68824,-7.74851 l 9.34311,14.77003 c 3.59883,5.68921 -14.16184,12.70313 -20.52421,8.8931 -0.61535,-0.3685 -9.8883,-15.5825 -9.8883,-15.5825 0,0 -23.34837,36.05747 -26.5556,26.76476 z"
       id="path4925" />
    <circle
       r="20.513554"
       cy="231.57703"
       cx="179.15971"
       id="path5033"
       style="opacity:1;vector-effect:none;fill:#333333;fill-opacity:1;stroke:none;stroke-width:0.26591641px;stroke-linecap:butt;stroke-linejoin:miter;stroke-miterlimit:4;stroke-dasharray:none;stroke-dashoffset:0;stroke-opacity:1" />
    <path
       id="path4610"
       d="m 269.98887,295.04168 -73.13759,-42.04219 c 0,0 98.20071,-57.49532 99.13972,-57.56328 10.53083,-0.76213 -32.47731,40.95043 -32.47731,40.95043 l 17.46141,-0.7393 c 6.72589,-0.28477 3.95543,18.60865 -2.51852,22.22582 -0.62614,0.34985 -18.43749,0.80707 -18.43749,0.80707 0,0 19.62463,38.21205 9.96978,36.36145 z"
       style="fill:#007079;fill-opacity:1;stroke:none;stroke-width:0.26458332px;stroke-linecap:butt;stroke-linejoin:miter;stroke-opacity:1" />
    <path
       style="fill:#65737d;fill-opacity:1;stroke:none;stroke-width:0.26458332px;stroke-linecap:butt;stroke-linejoin:miter;stroke-opacity:1"
       d="m 279.04161,184.60687 -73.25145,41.84351 c 0,0 0.0463,-113.79405 0.46243,-114.63857 4.66693,-9.47091 18.9097,48.72512 18.9097,48.72512 l 8.1908,-15.43885 c 3.15498,-5.94683 18.05475,5.99609 17.90223,13.41045 -0.0152,0.7171 -8.62584,16.31524 -8.62584,16.31524 0,0 42.89032,2.38893 36.41213,9.7831 z"
       id="path4612" />
    <path
       id="path4614"
       d="m 187.4098,121.01477 -0.0342,84.36026 c 0,0 -98.763425,-56.52322 -99.289999,-57.30366 -5.905388,-8.75247 51.685089,7.76948 51.685089,7.76948 l -9.33711,-14.77382 c -3.59653,-5.69067 14.16699,-12.69739 20.52781,-8.88477 0.61521,0.36871 9.88197,15.58649 9.88197,15.58649 0,0 23.363,-36.04799 26.56645,-26.75398 z"
       style="fill:#ff1243;fill-opacity:1;stroke:none;stroke-width:0.26458332px;stroke-linecap:butt;stroke-linejoin:miter;stroke-opacity:1" />
    <path
       style="fill:#007079;fill-opacity:1;stroke:none;stroke-width:0.26458332px;stroke-linecap:butt;stroke-linejoin:miter;stroke-opacity:1"
       d="m 87.849585,169.19858 73.090805,42.12352 c 0,0 -98.264601,57.38605 -99.20369,57.45297 -10.531677,0.75041 32.522846,-40.91429 32.522846,-40.91429 l -17.462222,0.71988 c -6.726207,0.27729 -3.934739,-18.61304 2.54324,-22.223 0.626505,-0.34917 18.438366,-0.78656 18.438366,-0.78656 0,0 -19.582117,-38.23387 -9.92934,-36.37252 z"
       id="path4616" />
    <path
       id="path4618"
       d="m 79.114292,279.47665 73.126518,-42.06148 c 0,0 0.29257,113.7937 -0.12105,114.63944 -4.63873,9.4848 -19.05473,-48.6686 -19.05473,-48.6686 l -8.14478,15.46319 c -3.13725,5.9562 -18.07253,-5.9423 -17.94208,-13.35709 0.0126,-0.71712 8.57723,-16.34085 8.57723,-16.34085 0,0 -42.897268,-2.2612 -36.441105,-9.67462 z"
       style="fill:#65737d;fill-opacity:1;stroke:none;stroke-width:0.26458332px;stroke-linecap:butt;stroke-linejoin:miter;stroke-opacity:1" />
  </g>
</svg>
